<?xml version="1.0" standalone="no"?>
<!DOCTYPE svg PUBLIC "-//W3C//DTD SVG 20010904//EN"
 "http://www.w3.org/TR/2001/REC-SVG-20010904/DTD/svg10.dtd">
<svg version="1.0" xmlns="http://www.w3.org/2000/svg"
 width="512.000000pt" height="512.000000pt" viewBox="0 0 512.000000 512.000000"
 preserveAspectRatio="xMidYMid meet">

<g transform="translate(0.000000,512.000000) scale(0.100000,-0.100000)"
fill="#000000" stroke="none">
<path d="M1380 4462 c0 -5 -29 -14 -65 -21 -201 -37 -400 -167 -515 -337 -63
-94 -117 -227 -127 -316 -3 -26 -10 -48 -15 -48 -5 0 -7 -513 -6 -1207 3
-1128 4 -1210 20 -1238 10 -16 18 -36 18 -42 0 -7 13 -45 29 -86 84 -210 273
-390 487 -463 149 -50 94 -48 1357 -51 656 -2 1176 1 1173 6 -3 4 17 11 44 14
70 8 209 58 276 98 217 131 329 299 403 602 14 60 16 2307 1 2353 -5 16 -18
69 -29 117 -51 224 -200 412 -411 522 -78 40 -130 57 -283 94 -56 13 -2357 16
-2357 3z m1383 -633 c377 -56 660 -296 772 -656 51 -162 69 -308 69 -548 0
-227 -6 -285 -49 -470 -35 -149 -69 -246 -137 -384 -71 -148 -117 -213 -208
-301 -153 -146 -337 -214 -451 -166 -40 17 -90 68 -114 116 -10 19 -19 36 -20
38 -1 1 -38 -20 -81 -47 -300 -191 -628 -146 -688 93 -15 62 -8 170 18 251 14
44 24 80 22 82 -1 2 -38 -6 -81 -17 -88 -23 -124 -24 -178 -9 -87 24 -137 108
-122 206 3 27 36 108 72 183 84 175 115 299 138 555 28 311 90 529 197 689
140 211 345 341 598 381 108 17 154 18 243 4z"/>
<path d="M2623 3109 c-38 -20 -57 -75 -61 -176 -3 -80 -1 -99 18 -138 41 -84
120 -97 179 -30 16 19 34 52 38 72 20 96 -2 217 -47 258 -23 21 -97 29 -127
14z"/>
<path d="M3040 3093 c-72 -65 -66 -295 8 -354 55 -43 146 -1 173 80 19 55 15
180 -6 224 -38 80 -117 102 -175 50z"/>
</g>
</svg>
